<?xml version="1.0" encoding="iso-8859-1"?>
<!-- Uploaded to: SVG Repo, www.svgrepo.com, Generator: SVG Repo Mixer Tools -->
<svg height="800px" width="800px" version="1.1" id="Layer_1" xmlns="http://www.w3.org/2000/svg" xmlns:xlink="http://www.w3.org/1999/xlink" 
	 viewBox="0 0 511.983 511.983" xml:space="preserve">
<path style="fill:#ED5564;" d="M391.518,0L255.992,15.061L0.001,271.053l240.93,240.93l256.006-255.992l15.046-135.519L391.518,0z
	 M391.706,141.511c-11.765,0-21.327-9.523-21.342-21.226c0-11.695,9.577-21.219,21.342-21.219c11.766,0,21.328,9.523,21.328,21.227
	C413.034,131.987,403.471,141.511,391.706,141.511z"/>
<g style="opacity:0.2;">
	<polygon style="fill:#FFFFFF;" points="15.094,286.146 271.085,30.147 406.612,15.085 391.518,0 255.992,15.061 0.001,271.053 
		240.93,511.982 240.93,511.982 	"/>
</g>
<path style="fill:#DA4453;" d="M391.706,88.403c-17.671,0-31.998,14.272-31.998,31.882c0,17.616,14.327,31.89,31.998,31.89
	c17.672,0,32-14.273,32-31.89C423.706,102.676,409.378,88.403,391.706,88.403z M391.706,130.839
	c-5.891,0-10.671-4.734-10.671-10.546c0-5.82,4.78-10.562,10.671-10.562l0,0c5.875,0,10.656,4.734,10.656,10.555
	C402.362,126.104,397.581,130.839,391.706,130.839z"/>
<path style="fill:#F5F7FA;" d="M333.536,235.023c-11.077-11.086-25.639-16.547-40.17-16.398c0.141-14.522-5.312-29.093-16.391-40.17
	c-21.874-21.867-57.326-21.867-79.2,0c-45.249,45.256-16.968,152.721-16.968,152.721s107.48,28.28,152.729-16.968
	C355.411,292.333,355.411,256.889,333.536,235.023z"/>
<g style="opacity:0.1;">
	<path d="M318.459,299.13c-35.874,35.874-110.855,25.531-140.386,19.703c1.516,7.719,2.734,12.343,2.734,12.343
		s107.48,28.28,152.729-16.968c21.875-21.875,21.875-57.318,0-79.185c-2.578-2.578-5.344-4.844-8.265-6.812
		C340.005,249.991,337.739,279.834,318.459,299.13z"/>
</g>
</svg>